# xmcd
#
# Track frame offsets:
#	150
#	17639
#	33690
#	50535
#	65362
#	82124
#	97766
#	114316
#	130101
#	146196
#	164432
#	181963
#
# Disc length: 2697 seconds
#
# Revision: 1
# Processed by: cddbd v1.5.2PL0 Copyright (c) Steve Scherf et al.
# Submitted via: EasyCDDAExtractor 12.0.1.1
#
DISCID=a00a870c
DTITLE=Brett Crenshaw - Another Late Night
DYEAR=2008
DGENRE=Country
TTITLE0=Tryin' To Keep Up
TTITLE1=Opened Up My Eyes
TTITLE2=Back Burner
TTITLE3=Life In A Country Song
TTITLE4=Cuttin' Loose
TTITLE5=Broke Free
TTITLE6=Maybe It's Best
TTITLE7=Chance
TTITLE8=Back Country Road
TTITLE9=Another Love Song
TTITLE10=Half A Mile To Go
TTITLE11=Up In Heaven
EXTD=
EXTT0=
EXTT1=
EXTT2=
EXTT3=
EXTT4=
EXTT5=
EXTT6=
EXTT7=
EXTT8=
EXTT9=
EXTT10=
EXTT11=
PLAYORDER=
